<mxfile host="65bd71144e">
    <diagram id="LJ78ELPPVPkJu11gS1He" name="数字证书">
        <mxGraphModel dx="780" dy="599" grid="1" gridSize="10" guides="1" tooltips="1" connect="1" arrows="1" fold="1" page="1" pageScale="1" pageWidth="827" pageHeight="1169" math="0" shadow="0">
            <root>
                <mxCell id="fMZYOE-fzQSuaplPLC3l-0"/>
                <mxCell id="fMZYOE-fzQSuaplPLC3l-1" parent="fMZYOE-fzQSuaplPLC3l-0"/>
                <mxCell id="fMZYOE-fzQSuaplPLC3l-24" value="" style="rounded=0;whiteSpace=wrap;html=1;fillColor=#000000;strokeColor=#000000;strokeWidth=9;" parent="fMZYOE-fzQSuaplPLC3l-1" vertex="1">
                    <mxGeometry x="220" y="120" width="140" height="270" as="geometry"/>
                </mxCell>
                <mxCell id="fMZYOE-fzQSuaplPLC3l-2" value="版本Version" style="rounded=0;whiteSpace=wrap;html=1;container=0;fillColor=#d5e8d4;strokeColor=#82b366;" parent="fMZYOE-fzQSuaplPLC3l-1" vertex="1">
                    <mxGeometry x="220" y="120" width="140" height="30" as="geometry"/>
                </mxCell>
                <mxCell id="fMZYOE-fzQSuaplPLC3l-3" value="序列号" style="rounded=0;whiteSpace=wrap;html=1;container=0;fillColor=#d5e8d4;strokeColor=#82b366;" parent="fMZYOE-fzQSuaplPLC3l-1" vertex="1">
                    <mxGeometry x="220" y="154" width="140" height="30" as="geometry"/>
                </mxCell>
                <mxCell id="fMZYOE-fzQSuaplPLC3l-4" value="签名算法" style="rounded=0;whiteSpace=wrap;html=1;container=0;fillColor=#d5e8d4;strokeColor=#82b366;" parent="fMZYOE-fzQSuaplPLC3l-1" vertex="1">
                    <mxGeometry x="220" y="189" width="140" height="30" as="geometry"/>
                </mxCell>
                <mxCell id="fMZYOE-fzQSuaplPLC3l-5" value="颁发者" style="rounded=0;whiteSpace=wrap;html=1;container=0;fillColor=#d5e8d4;strokeColor=#82b366;" parent="fMZYOE-fzQSuaplPLC3l-1" vertex="1">
                    <mxGeometry x="220" y="223" width="140" height="30" as="geometry"/>
                </mxCell>
                <mxCell id="fMZYOE-fzQSuaplPLC3l-6" value="有效期" style="rounded=0;whiteSpace=wrap;html=1;container=0;fillColor=#d5e8d4;strokeColor=#82b366;" parent="fMZYOE-fzQSuaplPLC3l-1" vertex="1">
                    <mxGeometry x="220" y="257" width="140" height="30" as="geometry"/>
                </mxCell>
                <mxCell id="fMZYOE-fzQSuaplPLC3l-7" value="主题名" style="rounded=0;whiteSpace=wrap;html=1;container=0;fillColor=#d5e8d4;strokeColor=#82b366;" parent="fMZYOE-fzQSuaplPLC3l-1" vertex="1">
                    <mxGeometry x="220" y="291" width="140" height="30" as="geometry"/>
                </mxCell>
                <mxCell id="fMZYOE-fzQSuaplPLC3l-8" value="公钥信息" style="rounded=0;whiteSpace=wrap;html=1;container=0;fillColor=#d5e8d4;strokeColor=#82b366;" parent="fMZYOE-fzQSuaplPLC3l-1" vertex="1">
                    <mxGeometry x="220" y="326" width="140" height="30" as="geometry"/>
                </mxCell>
                <mxCell id="fMZYOE-fzQSuaplPLC3l-9" value="签名" style="rounded=0;whiteSpace=wrap;html=1;fillColor=#60a917;fontColor=#ffffff;strokeColor=#2D7600;container=0;" parent="fMZYOE-fzQSuaplPLC3l-1" vertex="1">
                    <mxGeometry x="220" y="360" width="140" height="30" as="geometry"/>
                </mxCell>
                <mxCell id="fMZYOE-fzQSuaplPLC3l-16" value="" style="edgeStyle=none;shape=link;html=1;dashed=1;" parent="fMZYOE-fzQSuaplPLC3l-1" source="fMZYOE-fzQSuaplPLC3l-14" target="fMZYOE-fzQSuaplPLC3l-15" edge="1">
                    <mxGeometry relative="1" as="geometry"/>
                </mxCell>
                <mxCell id="fMZYOE-fzQSuaplPLC3l-14" value="" style="shape=curlyBracket;whiteSpace=wrap;html=1;rounded=1;" parent="fMZYOE-fzQSuaplPLC3l-1" vertex="1">
                    <mxGeometry x="200" y="134.5" width="20" height="207" as="geometry"/>
                </mxCell>
                <mxCell id="fMZYOE-fzQSuaplPLC3l-22" value="" style="edgeStyle=none;html=1;" parent="fMZYOE-fzQSuaplPLC3l-1" source="fMZYOE-fzQSuaplPLC3l-15" target="fMZYOE-fzQSuaplPLC3l-19" edge="1">
                    <mxGeometry relative="1" as="geometry"/>
                </mxCell>
                <mxCell id="fMZYOE-fzQSuaplPLC3l-15" value="对该部分做hash" style="whiteSpace=wrap;html=1;rounded=1;" parent="fMZYOE-fzQSuaplPLC3l-1" vertex="1">
                    <mxGeometry x="50" y="208" width="120" height="60" as="geometry"/>
                </mxCell>
                <mxCell id="fMZYOE-fzQSuaplPLC3l-23" value="" style="edgeStyle=none;html=1;" parent="fMZYOE-fzQSuaplPLC3l-1" source="fMZYOE-fzQSuaplPLC3l-19" target="fMZYOE-fzQSuaplPLC3l-9" edge="1">
                    <mxGeometry relative="1" as="geometry"/>
                </mxCell>
                <mxCell id="fMZYOE-fzQSuaplPLC3l-19" value="使用私钥对hash值加签" style="whiteSpace=wrap;html=1;rounded=1;" parent="fMZYOE-fzQSuaplPLC3l-1" vertex="1">
                    <mxGeometry x="50" y="345" width="120" height="60" as="geometry"/>
                </mxCell>
            </root>
        </mxGraphModel>
    </diagram>
    <diagram id="f0R_gTmEbICUevjb02AO" name="借助第三方对公钥做非对称加密">
        <mxGraphModel dx="780" dy="599" grid="1" gridSize="10" guides="1" tooltips="1" connect="1" arrows="1" fold="1" page="1" pageScale="1" pageWidth="827" pageHeight="1169" math="0" shadow="0">
            <root>
                <mxCell id="kDPMOWYQrUD8QyIsPTHs-0"/>
                <mxCell id="kDPMOWYQrUD8QyIsPTHs-1" parent="kDPMOWYQrUD8QyIsPTHs-0"/>
                <mxCell id="IW7lV43JxNSfuVdtLS3V-0" value="" style="rounded=1;whiteSpace=wrap;html=1;fillColor=#fad7ac;strokeColor=#b46504;" parent="kDPMOWYQrUD8QyIsPTHs-1" vertex="1">
                    <mxGeometry x="80" y="160" width="120" height="480" as="geometry"/>
                </mxCell>
                <mxCell id="IW7lV43JxNSfuVdtLS3V-1" value="" style="rounded=1;whiteSpace=wrap;html=1;fillColor=#cdeb8b;strokeColor=#36393d;" parent="kDPMOWYQrUD8QyIsPTHs-1" vertex="1">
                    <mxGeometry x="402" y="160" width="120" height="480" as="geometry"/>
                </mxCell>
                <mxCell id="IW7lV43JxNSfuVdtLS3V-14" value="会话秘钥" style="rounded=0;whiteSpace=wrap;html=1;fillColor=#60a917;fontColor=#ffffff;strokeColor=#2D7600;" parent="kDPMOWYQrUD8QyIsPTHs-1" vertex="1">
                    <mxGeometry x="432" y="555" width="60" height="30" as="geometry"/>
                </mxCell>
                <mxCell id="IW7lV43JxNSfuVdtLS3V-17" value="" style="shape=flexArrow;endArrow=classic;startArrow=classic;html=1;strokeWidth=2;exitX=1;exitY=0.5;exitDx=0;exitDy=0;fillColor=#d5e8d4;gradientColor=#97d077;strokeColor=#82b366;" parent="kDPMOWYQrUD8QyIsPTHs-1" source="QmeGcUXVcKmXf-QaNLtk-21" edge="1">
                    <mxGeometry width="100" height="100" relative="1" as="geometry">
                        <mxPoint x="350" y="690" as="sourcePoint"/>
                        <mxPoint x="400" y="576" as="targetPoint"/>
                    </mxGeometry>
                </mxCell>
                <mxCell id="IW7lV43JxNSfuVdtLS3V-18" value="公钥&lt;font size=&quot;1&quot; color=&quot;#66ff66&quot;&gt;&lt;b style=&quot;font-size: 13px&quot;&gt;PubKey&lt;/b&gt;&lt;/font&gt;&lt;br&gt;私钥&lt;font style=&quot;font-size: 13px&quot; color=&quot;#66ff66&quot;&gt;&lt;b&gt;PriKey&lt;/b&gt;&lt;/font&gt;" style="shape=ext;double=1;rounded=1;whiteSpace=wrap;html=1;dashed=1;strokeColor=#FFFF33;" parent="kDPMOWYQrUD8QyIsPTHs-1" vertex="1">
                    <mxGeometry x="422" y="170" width="80" height="40" as="geometry"/>
                </mxCell>
                <mxCell id="IW7lV43JxNSfuVdtLS3V-22" value="客户端" style="text;html=1;strokeColor=none;fillColor=none;align=center;verticalAlign=middle;whiteSpace=wrap;rounded=0;dashed=1;" parent="kDPMOWYQrUD8QyIsPTHs-1" vertex="1">
                    <mxGeometry x="108" y="130" width="60" height="30" as="geometry"/>
                </mxCell>
                <mxCell id="IW7lV43JxNSfuVdtLS3V-23" value="服务端" style="text;html=1;strokeColor=none;fillColor=none;align=center;verticalAlign=middle;whiteSpace=wrap;rounded=0;dashed=1;" parent="kDPMOWYQrUD8QyIsPTHs-1" vertex="1">
                    <mxGeometry x="432" y="130" width="60" height="30" as="geometry"/>
                </mxCell>
                <mxCell id="QmeGcUXVcKmXf-QaNLtk-3" value="&lt;b&gt;&lt;font color=&quot;#3333ff&quot;&gt;PubKey&lt;/font&gt;&lt;/b&gt;" style="text;html=1;align=center;verticalAlign=middle;resizable=0;points=[];autosize=1;strokeColor=none;fillColor=none;fontSize=14;" parent="kDPMOWYQrUD8QyIsPTHs-1" vertex="1">
                    <mxGeometry x="107.5" y="180" width="70" height="20" as="geometry"/>
                </mxCell>
                <mxCell id="QmeGcUXVcKmXf-QaNLtk-10" value="" style="rounded=1;whiteSpace=wrap;html=1;fontSize=14;fontColor=#000000;fillColor=#26FF52;" parent="kDPMOWYQrUD8QyIsPTHs-1" vertex="1">
                    <mxGeometry x="422" y="220" width="80" height="110" as="geometry"/>
                </mxCell>
                <mxCell id="QmeGcUXVcKmXf-QaNLtk-18" style="edgeStyle=none;html=1;exitX=0.5;exitY=1;exitDx=0;exitDy=0;entryX=0.5;entryY=0;entryDx=0;entryDy=0;fontSize=14;fontColor=#000000;" parent="kDPMOWYQrUD8QyIsPTHs-1" target="QmeGcUXVcKmXf-QaNLtk-15" edge="1">
                    <mxGeometry relative="1" as="geometry">
                        <mxPoint x="140" y="270" as="sourcePoint"/>
                    </mxGeometry>
                </mxCell>
                <mxCell id="QmeGcUXVcKmXf-QaNLtk-20" style="edgeStyle=none;html=1;exitX=0.5;exitY=1;exitDx=0;exitDy=0;entryX=0.5;entryY=0;entryDx=0;entryDy=0;fontSize=14;fontColor=#99FF99;" parent="kDPMOWYQrUD8QyIsPTHs-1" source="QmeGcUXVcKmXf-QaNLtk-15" target="QmeGcUXVcKmXf-QaNLtk-19" edge="1">
                    <mxGeometry relative="1" as="geometry"/>
                </mxCell>
                <mxCell id="QmeGcUXVcKmXf-QaNLtk-15" value="使用&lt;b&gt;&lt;font color=&quot;#0000cc&quot;&gt;PubKey&lt;/font&gt;验证证书的合法性&lt;/b&gt;" style="rounded=1;whiteSpace=wrap;html=1;fontSize=14;fontColor=#000000;fillColor=none;" parent="kDPMOWYQrUD8QyIsPTHs-1" vertex="1">
                    <mxGeometry x="80" y="351" width="120" height="60" as="geometry"/>
                </mxCell>
                <mxCell id="JwDkUBS2097RfAlYIRlh-12" value="" style="edgeStyle=none;html=1;fontColor=#000000;" parent="kDPMOWYQrUD8QyIsPTHs-1" source="QmeGcUXVcKmXf-QaNLtk-19" target="QmeGcUXVcKmXf-QaNLtk-21" edge="1">
                    <mxGeometry relative="1" as="geometry"/>
                </mxCell>
                <mxCell id="QmeGcUXVcKmXf-QaNLtk-19" value="&lt;b&gt;&lt;font style=&quot;font-size: 14px&quot;&gt;&lt;font color=&quot;#000000&quot;&gt;得到服务端的&lt;/font&gt;&lt;font color=&quot;#00ff80&quot;&gt;PubKey&lt;/font&gt;&lt;/font&gt;&lt;/b&gt;" style="rounded=1;whiteSpace=wrap;html=1;fontSize=13;fontColor=#66FF66;fillColor=none;" parent="kDPMOWYQrUD8QyIsPTHs-1" vertex="1">
                    <mxGeometry x="80" y="441" width="120" height="60" as="geometry"/>
                </mxCell>
                <mxCell id="QmeGcUXVcKmXf-QaNLtk-21" value="&lt;font color=&quot;#000000&quot;&gt;使用&lt;/font&gt;&lt;b style=&quot;color: rgb(102 , 255 , 102) ; font-size: 13px&quot;&gt;&lt;font style=&quot;font-size: 14px&quot;&gt;&lt;font color=&quot;#00ff80&quot;&gt;PubKey&lt;/font&gt;&lt;/font&gt;&lt;/b&gt;&lt;font color=&quot;#000000&quot;&gt;加密生成的会话秘钥&lt;/font&gt;" style="rounded=1;whiteSpace=wrap;html=1;fontSize=14;fontColor=#00FF80;fillColor=none;" parent="kDPMOWYQrUD8QyIsPTHs-1" vertex="1">
                    <mxGeometry x="80" y="546" width="120" height="60" as="geometry"/>
                </mxCell>
                <mxCell id="MqwLXj8ViMFqXoTFp2Kj-26" style="edgeStyle=none;html=1;exitX=0.5;exitY=1;exitDx=0;exitDy=0;entryX=0.5;entryY=0;entryDx=0;entryDy=0;fontSize=14;fontColor=#99FF99;" parent="kDPMOWYQrUD8QyIsPTHs-1" edge="1">
                    <mxGeometry relative="1" as="geometry">
                        <mxPoint x="140" y="1160" as="sourcePoint"/>
                    </mxGeometry>
                </mxCell>
                <mxCell id="JwDkUBS2097RfAlYIRlh-0" value="数字证书认证机构" style="rounded=1;whiteSpace=wrap;html=1;fillColor=#cdeb8b;strokeColor=#36393d;" parent="kDPMOWYQrUD8QyIsPTHs-1" vertex="1">
                    <mxGeometry x="742" y="160" width="120" height="480" as="geometry"/>
                </mxCell>
                <mxCell id="JwDkUBS2097RfAlYIRlh-1" value="" style="shape=flexArrow;endArrow=classic;startArrow=classic;html=1;entryX=0;entryY=0.167;entryDx=0;entryDy=0;entryPerimeter=0;" parent="kDPMOWYQrUD8QyIsPTHs-1" target="JwDkUBS2097RfAlYIRlh-0" edge="1">
                    <mxGeometry width="100" height="100" relative="1" as="geometry">
                        <mxPoint x="522" y="240" as="sourcePoint"/>
                        <mxPoint x="672" y="280" as="targetPoint"/>
                    </mxGeometry>
                </mxCell>
                <mxCell id="JwDkUBS2097RfAlYIRlh-2" value="申请证书" style="text;html=1;strokeColor=none;fillColor=none;align=center;verticalAlign=middle;whiteSpace=wrap;rounded=0;" parent="kDPMOWYQrUD8QyIsPTHs-1" vertex="1">
                    <mxGeometry x="602" y="210" width="60" height="30" as="geometry"/>
                </mxCell>
                <mxCell id="JwDkUBS2097RfAlYIRlh-3" value="签名成功的证书" style="text;html=1;strokeColor=none;fillColor=none;align=center;verticalAlign=middle;whiteSpace=wrap;rounded=0;" parent="kDPMOWYQrUD8QyIsPTHs-1" vertex="1">
                    <mxGeometry x="602" y="240" width="60" height="30" as="geometry"/>
                </mxCell>
                <mxCell id="JwDkUBS2097RfAlYIRlh-4" value="公钥" style="rounded=1;whiteSpace=wrap;html=1;" parent="kDPMOWYQrUD8QyIsPTHs-1" vertex="1">
                    <mxGeometry x="432" y="230" width="60" height="30" as="geometry"/>
                </mxCell>
                <mxCell id="JwDkUBS2097RfAlYIRlh-5" value="签名" style="rounded=1;whiteSpace=wrap;html=1;" parent="kDPMOWYQrUD8QyIsPTHs-1" vertex="1">
                    <mxGeometry x="432" y="266" width="60" height="30" as="geometry"/>
                </mxCell>
                <mxCell id="JwDkUBS2097RfAlYIRlh-6" value="其他信息" style="rounded=1;whiteSpace=wrap;html=1;" parent="kDPMOWYQrUD8QyIsPTHs-1" vertex="1">
                    <mxGeometry x="432" y="300" width="60" height="30" as="geometry"/>
                </mxCell>
                <mxCell id="JwDkUBS2097RfAlYIRlh-7" value="" style="rounded=1;whiteSpace=wrap;html=1;fontSize=14;fontColor=#000000;fillColor=#26FF52;" parent="kDPMOWYQrUD8QyIsPTHs-1" vertex="1">
                    <mxGeometry x="102.5" y="210" width="80" height="110" as="geometry"/>
                </mxCell>
                <mxCell id="JwDkUBS2097RfAlYIRlh-8" value="公钥" style="rounded=1;whiteSpace=wrap;html=1;" parent="kDPMOWYQrUD8QyIsPTHs-1" vertex="1">
                    <mxGeometry x="112.5" y="220" width="60" height="30" as="geometry"/>
                </mxCell>
                <mxCell id="JwDkUBS2097RfAlYIRlh-9" value="签名" style="rounded=1;whiteSpace=wrap;html=1;" parent="kDPMOWYQrUD8QyIsPTHs-1" vertex="1">
                    <mxGeometry x="112.5" y="256" width="60" height="30" as="geometry"/>
                </mxCell>
                <mxCell id="JwDkUBS2097RfAlYIRlh-10" value="其他信息" style="rounded=1;whiteSpace=wrap;html=1;" parent="kDPMOWYQrUD8QyIsPTHs-1" vertex="1">
                    <mxGeometry x="112.5" y="290" width="60" height="30" as="geometry"/>
                </mxCell>
                <mxCell id="JwDkUBS2097RfAlYIRlh-14" value="" style="shape=flexArrow;endArrow=classic;startArrow=classic;html=1;fontColor=#000000;exitX=1.01;exitY=0.21;exitDx=0;exitDy=0;exitPerimeter=0;entryX=0.001;entryY=0.206;entryDx=0;entryDy=0;entryPerimeter=0;" parent="kDPMOWYQrUD8QyIsPTHs-1" source="IW7lV43JxNSfuVdtLS3V-0" target="IW7lV43JxNSfuVdtLS3V-1" edge="1">
                    <mxGeometry width="100" height="100" relative="1" as="geometry">
                        <mxPoint x="370" y="340" as="sourcePoint"/>
                        <mxPoint x="470" y="240" as="targetPoint"/>
                    </mxGeometry>
                </mxCell>
                <mxCell id="JwDkUBS2097RfAlYIRlh-15" value="请求证书" style="edgeLabel;html=1;align=center;verticalAlign=middle;resizable=0;points=[];fontColor=#000000;" parent="JwDkUBS2097RfAlYIRlh-14" vertex="1" connectable="0">
                    <mxGeometry x="-0.0626" y="1" relative="1" as="geometry">
                        <mxPoint as="offset"/>
                    </mxGeometry>
                </mxCell>
                <mxCell id="JwDkUBS2097RfAlYIRlh-40" value="" style="edgeStyle=none;html=1;fontColor=#000000;" parent="kDPMOWYQrUD8QyIsPTHs-1" source="JwDkUBS2097RfAlYIRlh-41" target="JwDkUBS2097RfAlYIRlh-43" edge="1">
                    <mxGeometry relative="1" as="geometry"/>
                </mxCell>
                <mxCell id="JwDkUBS2097RfAlYIRlh-41" value="获取公钥" style="rounded=1;whiteSpace=wrap;html=1;fontColor=#000000;" parent="kDPMOWYQrUD8QyIsPTHs-1" vertex="1">
                    <mxGeometry x="80" y="740" width="120" height="60" as="geometry"/>
                </mxCell>
                <mxCell id="JwDkUBS2097RfAlYIRlh-42" value="" style="edgeStyle=none;html=1;fontColor=#000000;" parent="kDPMOWYQrUD8QyIsPTHs-1" source="JwDkUBS2097RfAlYIRlh-43" target="JwDkUBS2097RfAlYIRlh-45" edge="1">
                    <mxGeometry relative="1" as="geometry"/>
                </mxCell>
                <mxCell id="JwDkUBS2097RfAlYIRlh-43" value="使用CA内置公钥解密" style="rounded=1;whiteSpace=wrap;html=1;fontColor=#000000;" parent="kDPMOWYQrUD8QyIsPTHs-1" vertex="1">
                    <mxGeometry x="240" y="740" width="120" height="60" as="geometry"/>
                </mxCell>
                <mxCell id="JwDkUBS2097RfAlYIRlh-44" value="" style="edgeStyle=none;html=1;fontColor=#000000;" parent="kDPMOWYQrUD8QyIsPTHs-1" source="JwDkUBS2097RfAlYIRlh-45" target="JwDkUBS2097RfAlYIRlh-49" edge="1">
                    <mxGeometry relative="1" as="geometry"/>
                </mxCell>
                <mxCell id="JwDkUBS2097RfAlYIRlh-45" value="根据证书内的hash算法对公钥数据做摘要" style="rounded=1;whiteSpace=wrap;html=1;fontColor=#000000;" parent="kDPMOWYQrUD8QyIsPTHs-1" vertex="1">
                    <mxGeometry x="418" y="740" width="120" height="60" as="geometry"/>
                </mxCell>
                <mxCell id="JwDkUBS2097RfAlYIRlh-46" value="" style="edgeStyle=none;html=1;fontColor=#000000;" parent="kDPMOWYQrUD8QyIsPTHs-1" source="JwDkUBS2097RfAlYIRlh-49" target="JwDkUBS2097RfAlYIRlh-50" edge="1">
                    <mxGeometry relative="1" as="geometry"/>
                </mxCell>
                <mxCell id="JwDkUBS2097RfAlYIRlh-47" value="相同" style="edgeLabel;html=1;align=center;verticalAlign=middle;resizable=0;points=[];fontColor=#000000;" parent="JwDkUBS2097RfAlYIRlh-46" vertex="1" connectable="0">
                    <mxGeometry x="-0.1708" y="4" relative="1" as="geometry">
                        <mxPoint as="offset"/>
                    </mxGeometry>
                </mxCell>
                <mxCell id="JwDkUBS2097RfAlYIRlh-52" value="" style="edgeStyle=none;html=1;fontColor=#000000;" parent="kDPMOWYQrUD8QyIsPTHs-1" source="JwDkUBS2097RfAlYIRlh-49" target="JwDkUBS2097RfAlYIRlh-51" edge="1">
                    <mxGeometry relative="1" as="geometry"/>
                </mxCell>
                <mxCell id="JwDkUBS2097RfAlYIRlh-49" value="跟证书内的hash值比对" style="html=1;whiteSpace=wrap;aspect=fixed;shape=isoRectangle;fontColor=#000000;" parent="kDPMOWYQrUD8QyIsPTHs-1" vertex="1">
                    <mxGeometry x="592" y="725" width="150" height="90" as="geometry"/>
                </mxCell>
                <mxCell id="JwDkUBS2097RfAlYIRlh-50" value="证书合法" style="rounded=1;whiteSpace=wrap;html=1;fontColor=#000000;" parent="kDPMOWYQrUD8QyIsPTHs-1" vertex="1">
                    <mxGeometry x="607" y="860" width="120" height="60" as="geometry"/>
                </mxCell>
                <mxCell id="JwDkUBS2097RfAlYIRlh-51" value="直接抛弃掉证书" style="rounded=1;whiteSpace=wrap;html=1;fontColor=#000000;" parent="kDPMOWYQrUD8QyIsPTHs-1" vertex="1">
                    <mxGeometry x="607" y="630" width="120" height="60" as="geometry"/>
                </mxCell>
            </root>
        </mxGraphModel>
    </diagram>
</mxfile>